<mxfile host="app.diagrams.net" agent="Mozilla/5.0 (Windows NT 10.0; Win64; x64) AppleWebKit/537.36 (KHTML, like Gecko) Chrome/130.0.0.0 Safari/537.36" version="24.8.4">
  <diagram name="Página-1" id="CkFUNE6_uK4EKztHeUAr">
    <mxGraphModel dx="819" dy="441" grid="1" gridSize="10" guides="1" tooltips="1" connect="1" arrows="1" fold="1" page="1" pageScale="1" pageWidth="827" pageHeight="1169" math="0" shadow="0">
      <root>
        <mxCell id="0" />
        <mxCell id="1" parent="0" />
        <mxCell id="RtxJcWbIhs7yIyQuRKCm-1" style="edgeStyle=orthogonalEdgeStyle;rounded=0;orthogonalLoop=1;jettySize=auto;html=1;endArrow=none;endFill=0;dashed=1;" edge="1" parent="1">
          <mxGeometry relative="1" as="geometry">
            <mxPoint x="140" y="440" as="targetPoint" />
            <mxPoint x="140" y="220" as="sourcePoint" />
          </mxGeometry>
        </mxCell>
        <mxCell id="RtxJcWbIhs7yIyQuRKCm-2" value="Usuário" style="shape=umlActor;verticalLabelPosition=bottom;verticalAlign=top;html=1;outlineConnect=0;" vertex="1" parent="1">
          <mxGeometry x="120" y="110" width="40" height="80" as="geometry" />
        </mxCell>
        <mxCell id="RtxJcWbIhs7yIyQuRKCm-3" value="" style="rounded=1;whiteSpace=wrap;html=1;" vertex="1" parent="1">
          <mxGeometry x="125" y="230" width="30" height="180" as="geometry" />
        </mxCell>
        <mxCell id="RtxJcWbIhs7yIyQuRKCm-5" style="edgeStyle=orthogonalEdgeStyle;rounded=0;orthogonalLoop=1;jettySize=auto;html=1;endArrow=none;endFill=0;dashed=1;" edge="1" parent="1">
          <mxGeometry relative="1" as="geometry">
            <mxPoint x="420" y="440" as="targetPoint" />
            <mxPoint x="420" y="220" as="sourcePoint" />
          </mxGeometry>
        </mxCell>
        <mxCell id="RtxJcWbIhs7yIyQuRKCm-7" value="" style="rounded=1;whiteSpace=wrap;html=1;" vertex="1" parent="1">
          <mxGeometry x="405" y="230" width="30" height="180" as="geometry" />
        </mxCell>
        <mxCell id="RtxJcWbIhs7yIyQuRKCm-13" value="" style="shape=umlBoundary;whiteSpace=wrap;html=1;" vertex="1" parent="1">
          <mxGeometry x="382.5" y="140" width="70" height="55" as="geometry" />
        </mxCell>
        <mxCell id="RtxJcWbIhs7yIyQuRKCm-14" value="&lt;font style=&quot;font-size: 11px;&quot;&gt;Banco de&amp;nbsp;&lt;/font&gt;&lt;div style=&quot;font-size: 11px;&quot;&gt;&lt;font style=&quot;font-size: 11px;&quot;&gt;dados&lt;/font&gt;&lt;/div&gt;" style="text;html=1;align=center;verticalAlign=middle;resizable=0;points=[];autosize=1;strokeColor=none;fillColor=none;" vertex="1" parent="1">
          <mxGeometry x="387.5" y="185" width="70" height="40" as="geometry" />
        </mxCell>
        <mxCell id="RtxJcWbIhs7yIyQuRKCm-16" value="Mostrar Logs" style="endArrow=classic;html=1;rounded=0;exitX=0.011;exitY=0.383;exitDx=0;exitDy=0;exitPerimeter=0;entryX=0.978;entryY=0.383;entryDx=0;entryDy=0;entryPerimeter=0;dashed=1;" edge="1" parent="1" source="RtxJcWbIhs7yIyQuRKCm-7" target="RtxJcWbIhs7yIyQuRKCm-3">
          <mxGeometry x="0.0042" y="-10" width="50" height="50" relative="1" as="geometry">
            <mxPoint x="400" y="299" as="sourcePoint" />
            <mxPoint x="160" y="299" as="targetPoint" />
            <mxPoint as="offset" />
          </mxGeometry>
        </mxCell>
        <mxCell id="RtxJcWbIhs7yIyQuRKCm-17" value="Solicita Log especifico" style="endArrow=classic;html=1;rounded=0;exitX=1.167;exitY=0.617;exitDx=0;exitDy=0;exitPerimeter=0;entryX=-0.067;entryY=0.617;entryDx=0;entryDy=0;entryPerimeter=0;" edge="1" parent="1" source="RtxJcWbIhs7yIyQuRKCm-3" target="RtxJcWbIhs7yIyQuRKCm-7">
          <mxGeometry x="-0.0115" y="10" width="50" height="50" relative="1" as="geometry">
            <mxPoint x="160" y="341" as="sourcePoint" />
            <mxPoint x="400" y="341" as="targetPoint" />
            <mxPoint as="offset" />
          </mxGeometry>
        </mxCell>
        <mxCell id="RtxJcWbIhs7yIyQuRKCm-18" value="Retorna informações do Log" style="endArrow=classic;html=1;rounded=0;entryX=1;entryY=0.204;entryDx=0;entryDy=0;entryPerimeter=0;exitX=0.033;exitY=0.206;exitDx=0;exitDy=0;exitPerimeter=0;dashed=1;" edge="1" parent="1">
          <mxGeometry x="0.0042" y="-10" width="50" height="50" relative="1" as="geometry">
            <mxPoint x="405" y="381" as="sourcePoint" />
            <mxPoint x="154" y="380" as="targetPoint" />
            <mxPoint as="offset" />
          </mxGeometry>
        </mxCell>
        <mxCell id="RtxJcWbIhs7yIyQuRKCm-19" value="Realizar Login" style="endArrow=classic;html=1;rounded=0;entryX=0.011;entryY=0.113;entryDx=0;entryDy=0;entryPerimeter=0;exitX=1;exitY=0.115;exitDx=0;exitDy=0;exitPerimeter=0;" edge="1" parent="1">
          <mxGeometry x="-0.0036" y="11" width="50" height="50" relative="1" as="geometry">
            <mxPoint x="155" y="261" as="sourcePoint" />
            <mxPoint x="405" y="260" as="targetPoint" />
            <mxPoint as="offset" />
          </mxGeometry>
        </mxCell>
      </root>
    </mxGraphModel>
  </diagram>
</mxfile>
